<?xml version="1.0" encoding="UTF-8"?>
<svg version="1.1" xmlns="http://www.w3.org/2000/svg" width="128" height="66">
<path d="M0 0 C42.24 0 84.48 0 128 0 C128 8 128 8 125.75732422 10.80613708 C124.7417041 11.63637894 123.72608398 12.46662079 122.6796875 13.32202148 C121.56669581 14.26547056 120.45573509 15.21132012 119.34667969 16.15939331 C118.78331909 16.63123425 118.2199585 17.10307518 117.63952637 17.58921432 C115.1605204 19.72235849 112.87103523 22.02527032 110.5703125 24.34790039 C109.6831958 25.241548 108.7960791 26.13519562 107.88208008 27.05592346 C106.51732544 28.43783119 106.51732544 28.43783119 105.125 29.84765625 C104.14320076 30.83643045 103.16101438 31.82482038 102.1784668 32.81285095 C98.06976766 36.94562669 93.96723489 41.08448709 89.86865234 45.22729492 C87.33682996 47.7859006 84.80015231 50.33960894 82.26043701 52.89037895 C80.83862152 54.32136623 79.4224281 55.75793251 78.00634766 57.19459534 C77.14444824 58.0598735 76.28254883 58.92515167 75.39453125 59.81665039 C74.64018799 60.57845108 73.88584473 61.34025177 73.10864258 62.12513733 C70.25318606 64.66401656 67.9967934 65.81876484 64.25 66.5 C54.97984222 65.07382188 47.50904886 54.78451818 41.1328125 48.36328125 C40.00597099 47.2352453 38.87875699 46.10758134 37.75119019 44.98027039 C35.4032755 42.63080075 33.05873092 40.27803828 30.71679688 37.92260742 C27.71587951 34.90461325 24.70833291 31.89333222 21.69848824 28.88424397 C19.37679994 26.56228393 17.05772513 24.23772872 14.73952866 21.91228294 C13.63093668 20.80051271 12.52174146 19.68934365 11.41193008 18.57879066 C9.86599901 17.0306921 8.32340412 15.47934657 6.78173828 13.92700195 C5.90429962 13.0457515 5.02686096 12.16450104 4.12283325 11.25654602 C0.16181431 7.04603089 0 6.19832819 0 0 Z " fill="#000000" transform="translate(0,0)"/>
</svg>
