<?xml version="1.0" encoding="UTF-8"?>
<svg version="1.1" xmlns="http://www.w3.org/2000/svg" width="81" height="81">
<path d="M0 0 C1.89237648 -0.01429802 1.89237648 -0.01429802 3.82298279 -0.02888489 C5.19196602 -0.02862344 6.56094927 -0.0276863 7.92993164 -0.02612305 C9.34330877 -0.03001346 10.75668474 -0.03434884 12.1700592 -0.03910828 C15.12805985 -0.04655659 18.0859411 -0.0462893 21.04394531 -0.04101562 C24.82454357 -0.03522199 28.60465176 -0.05215564 32.38516903 -0.0753603 C35.30293102 -0.09013004 38.22057585 -0.09096498 41.13836861 -0.08785057 C42.53175388 -0.08836213 43.92514599 -0.09356878 45.3184948 -0.10366249 C47.27088521 -0.11607146 49.22337508 -0.10727179 51.17578125 -0.09765625 C52.8386039 -0.09860039 52.8386039 -0.09860039 54.53501892 -0.0995636 C58.25392485 0.34684054 60.53072405 1.19723309 63.65258789 3.2746582 C66.42909296 7.45079287 67.03006734 10.7775432 67.04077148 15.7355957 C67.05022797 16.99710449 67.05968445 18.25861328 67.06942749 19.55834961 C67.06405727 20.92212236 67.05790419 22.28589223 67.05102539 23.6496582 C67.05304878 25.06160634 67.05596242 26.47355346 67.0597229 27.88549805 C67.06413385 30.83758543 67.05775522 33.78939958 67.04370117 36.74145508 C67.02660963 40.5142085 67.03645748 44.28632155 67.05441856 48.05905151 C67.06528991 50.97254204 67.06179481 53.88588224 67.05403519 56.79937744 C67.05204242 58.18996253 67.05445985 59.58056154 67.06147385 60.97113037 C67.06914275 62.91865761 67.05537018 64.86623308 67.04077148 66.8137207 C67.0383847 67.91925293 67.03599792 69.02478516 67.03353882 70.16381836 C66.59335172 73.75837996 65.49705724 76.17524111 63.65258789 79.2746582 C60.24486346 81.67888096 56.90906606 81.74285632 52.84399414 81.66918945 C49.31993275 81.03473277 47.75524031 79.03438951 45.65258789 76.2746582 C44.09763091 73.16474424 44.41181833 69.84121771 44.33618164 66.4230957 C44.31540054 65.64906403 44.29461945 64.87503235 44.27320862 64.07754517 C44.20775341 61.60167428 44.14884703 59.12569618 44.09008789 56.6496582 C44.04689883 54.97256372 44.00328441 53.29548014 43.95922852 51.6184082 C43.85207618 47.50393512 43.75079744 43.38935406 43.65258789 39.2746582 C43.20015213 39.73153519 42.74771637 40.18841217 42.28157043 40.65913391 C37.56684384 45.4181462 32.84506136 50.17007312 28.11914062 54.91796875 C26.35690717 56.69025266 24.59647386 58.46432841 22.83789062 60.24023438 C20.30819559 62.79421905 17.77207294 65.34166606 15.23461914 67.88793945 C14.45109573 68.68178543 13.66757233 69.47563141 12.86030579 70.29353333 C12.11991562 71.03407455 11.37952545 71.77461578 10.61669922 72.53759766 C9.97050125 73.18823685 9.32430328 73.83887604 8.65852356 74.50923157 C5.54800919 77.24679938 2.8421829 79.09748448 -1.28491211 79.7121582 C-5.80398226 79.06657675 -8.95464961 77.1105724 -11.72241211 73.4621582 C-12.74249411 69.89187119 -13.01404675 68.03205346 -12.34741211 64.2746582 C-5.30133138 54.70059431 4.30427565 46.50958892 12.71508789 38.1496582 C14.16779615 36.70197661 15.62027192 35.25406168 17.07250977 33.8059082 C20.59652975 30.29279754 24.12367426 26.78285289 27.65258789 23.2746582 C26.10148315 23.25278442 26.10148315 23.25278442 24.51904297 23.23046875 C20.67022707 23.17234938 16.8219879 23.09511798 12.97363281 23.01220703 C11.31031681 22.97902165 9.64688993 22.95096986 7.98339844 22.92822266 C5.5874929 22.89455821 3.19259754 22.8422388 0.79711914 22.78637695 C0.05734329 22.77998703 -0.68243256 22.77359711 -1.44462585 22.76701355 C-5.90034835 22.64108016 -8.81409549 22.03910034 -12.34741211 19.2746582 C-15.04708938 15.2251423 -14.8817887 12.02560005 -14.34741211 7.2746582 C-13.03922492 4.03861621 -12.2483664 2.72654013 -9.13084412 1.16291809 C-5.94883734 0.14746344 -3.33915133 0.01388828 0 0 Z " fill="#000000" transform="translate(14.347412109375,-0.274658203125)"/>
</svg>
