<?xml version="1.0" encoding="UTF-8"?>
<svg version="1.1" xmlns="http://www.w3.org/2000/svg" width="512" height="512">
<path d="M0 0 C1.50572551 -0.00514761 3.01144497 -0.01243522 4.51715088 -0.02168274 C8.57917975 -0.04009497 12.64054678 -0.02732462 16.70254755 -0.00759244 C20.96689695 0.0088741 25.23120706 -0.00002964 29.49557495 -0.00511169 C36.65243014 -0.00962277 43.80902313 0.00617821 50.96582031 0.03417969 C59.22641337 0.06625171 67.48653436 0.06620318 75.74716103 0.04896492 C83.71460681 0.03307476 91.6818804 0.03984778 99.6493187 0.05690193 C103.03113292 0.06375358 106.41280833 0.06275954 109.79462051 0.05535698 C113.77903227 0.04766807 117.76290973 0.0599044 121.74723053 0.08720589 C123.20483948 0.0940627 124.66249858 0.09421681 126.12010574 0.08699036 C135.73005339 0.04485346 142.20472801 0.50928884 149.60498047 7.06860352 C150.34748047 7.91422852 151.08998047 8.75985352 151.85498047 9.63110352 C152.55623047 10.41485352 153.25748047 11.19860352 153.97998047 12.00610352 C159.2037677 19.31940563 159.68500917 25.75876973 158.85498047 34.63110352 C158.17192384 37.39797784 157.30188248 39.099025 155.85498047 41.63110352 C155.33935547 42.62110352 154.82373047 43.61110352 154.29248047 44.63110352 C148.94373928 51.2141696 142.94391823 54.31997844 134.85498047 56.63110352 C97.56498047 56.63110352 60.27498047 56.63110352 21.85498047 56.63110352 C21.85498047 188.63110352 21.85498047 320.63110352 21.85498047 456.63110352 C153.85498047 456.63110352 285.85498047 456.63110352 421.85498047 456.63110352 C421.85498047 419.67110352 421.85498047 382.71110352 421.85498047 344.63110352 C425.23665242 333.35886369 425.23665242 333.35886369 429.29248047 329.19360352 C430.43523437 327.98897461 430.43523437 327.98897461 431.60107422 326.76000977 C438.33637591 320.39824301 444.6614638 319.09576114 453.78466797 319.24438477 C460.52855924 320.09380618 467.07488504 323.85100809 471.85498047 328.63110352 C475.93675855 334.35257023 477.97501894 338.65770513 478.00215149 345.7844696 C478.01288445 347.71698326 478.01288445 347.71698326 478.02383423 349.6885376 C478.02667449 351.11950659 478.02938622 352.55047585 478.03198242 353.98144531 C478.03824791 355.48613136 478.04489478 356.99081585 478.05189514 358.49549866 C478.07293035 363.44042891 478.08329799 368.38535945 478.09326172 373.33032227 C478.09730967 375.03363371 478.10142661 376.736945 478.1056118 378.44025612 C478.12466341 386.4439596 478.1388937 394.44765387 478.14722377 402.45137566 C478.1569922 411.68430658 478.18330147 420.9169975 478.22372466 430.14984387 C478.25390919 437.28967512 478.26869492 444.42943767 478.27200478 451.56933147 C478.27435289 455.83192487 478.28328182 460.09426188 478.30846596 464.35678673 C478.3317923 468.36974915 478.33596178 472.3822872 478.32570457 476.39529991 C478.32521018 477.86422133 478.33150209 479.33316396 478.34526062 480.80202103 C478.42894525 490.26968129 477.89597905 496.45695894 471.96044922 504.05688477 C471.32751953 504.67950195 470.69458984 505.30211914 470.04248047 505.94360352 C469.1046875 506.89686523 469.1046875 506.89686523 468.14794922 507.86938477 C462.62439948 512.11320237 457.44627632 513.07350002 450.61056519 513.00862694 C449.40116189 513.01516742 449.40116189 513.01516742 448.16732621 513.02184004 C445.46652223 513.03278547 442.76622991 513.02237762 440.06542969 513.01205444 C438.10921912 513.01551128 436.1530105 513.02027602 434.19680595 513.02623618 C428.82173675 513.03877217 423.44682713 513.03256391 418.07175732 513.02327752 C412.2748169 513.01649804 406.47790418 513.0269628 400.68096924 513.03521729 C389.32494597 513.04856856 377.96898213 513.04567065 366.61295652 513.03697936 C357.38501211 513.03020872 348.15708437 513.02928342 338.92913818 513.03255081 C336.96031058 513.03324036 336.96031058 513.03324036 334.95170867 513.03394384 C332.95384951 513.03466254 330.95599034 513.03538129 328.95813119 513.03612451 C303.9915463 513.04530171 279.02499384 513.03698082 254.05841395 513.02083382 C231.87665313 513.00659698 209.69494397 513.00787086 187.51318359 513.0222168 C162.59229044 513.03828037 137.67142594 513.04465087 112.75052834 513.03538001 C110.09395981 513.03442434 107.43739129 513.03348123 104.78082275 513.03255081 C103.47368439 513.03208799 102.16654602 513.03162516 100.8197974 513.03114831 C91.6011917 513.02855626 82.38260432 513.03293405 73.16400146 513.03998947 C61.9321165 513.04839665 50.70029444 513.04614076 39.46841669 513.03014724 C33.73596133 513.02225404 28.00361093 513.01919086 22.27115631 513.0290947 C17.02566358 513.03802027 11.78037331 513.03314393 6.534899 513.01716204 C4.63526747 513.01380518 2.73561891 513.01552855 0.8359983 513.0227894 C-1.74311348 513.03189282 -4.32152897 513.02257464 -6.90060425 513.00862694 C-7.64067396 513.01565044 -8.38074367 513.02267393 -9.14323974 513.02991027 C-14.23830932 512.97472126 -17.66202169 511.84863498 -22.14501953 509.63110352 C-22.14501953 508.97110352 -22.14501953 508.31110352 -22.14501953 507.63110352 C-22.98033203 507.32172852 -22.98033203 507.32172852 -23.83251953 507.00610352 C-28.95815111 503.95843069 -31.86009275 498.99235309 -34.14501953 493.63110352 C-34.4240598 490.84759775 -34.55228326 488.29362343 -34.52812958 485.51532269 C-34.53308909 484.71080686 -34.53804861 483.90629104 -34.54315841 483.07739595 C-34.55613107 480.37652556 -34.54772456 477.67614819 -34.53942871 474.9752655 C-34.54431683 473.02134246 -34.55050626 471.06742231 -34.5578866 469.11350709 C-34.5743194 463.74004941 -34.57196137 458.36673813 -34.56651163 452.99326408 C-34.56384554 447.19966883 -34.57836534 441.40611297 -34.59060669 435.61253357 C-34.61168094 424.26038886 -34.61620039 412.90829519 -34.6144188 401.55613323 C-34.61311214 392.33008768 -34.61691043 383.10405807 -34.62434387 373.87801552 C-34.62644303 371.22233862 -34.62854063 368.56666172 -34.63063669 365.91098481 C-34.63116068 365.2507764 -34.63168468 364.59056798 -34.63222455 363.91035324 C-34.6468091 345.33985139 -34.65508981 326.76935523 -34.65047455 308.19884777 C-34.65030259 307.49869507 -34.65013064 306.79854237 -34.64995347 306.07717292 C-34.64906458 302.52850517 -34.64811977 298.97983744 -34.64715546 295.43116971 C-34.64696443 294.72639112 -34.6467734 294.02161254 -34.64657658 293.29547702 C-34.64618948 291.87024301 -34.64579916 290.445009 -34.6454056 289.01977498 C-34.63943603 266.84484641 -34.65487137 244.67002222 -34.68701172 222.49511719 C-34.72309035 197.58189822 -34.74242109 172.66874544 -34.73747301 147.75549871 C-34.73522682 134.56434106 -34.74049333 121.37328688 -34.7653656 108.18214989 C-34.78636025 96.95173394 -34.78998889 85.72147817 -34.77106601 74.49105569 C-34.76189683 68.76031267 -34.76080165 63.02986845 -34.78142166 57.29914856 C-34.80009023 52.05277961 -34.79567404 46.80695507 -34.77287585 41.56060711 C-34.7686797 39.66292613 -34.77292403 37.76520375 -34.78647178 35.86756649 C-34.90577356 17.93532567 -34.90577356 17.93532567 -29.14501953 10.63110352 C-28.58814453 9.72360352 -28.03126953 8.81610352 -27.45751953 7.88110352 C-19.55645169 0.19357805 -10.49830318 -0.09180981 0 0 Z " fill="#000000" transform="translate(34.14501953125,-0.631103515625)"/>
<path d="M0 0 C0.95674212 -0.00623996 1.91348425 -0.01247993 2.89921856 -0.01890898 C6.08972355 -0.03480254 9.2794607 -0.02224867 12.4699707 -0.00964355 C14.76356449 -0.01506627 17.0571548 -0.02218976 19.35073853 -0.03088379 C25.56969893 -0.04910208 31.78839357 -0.04205558 38.00735855 -0.02936745 C44.51923584 -0.01923216 51.03109056 -0.02863461 57.54296875 -0.03491211 C69.17817591 -0.04265276 80.81326191 -0.03023125 92.44844997 -0.00987476 C102.98856096 0.00799521 113.52849571 0.00489078 124.06860352 -0.0135498 C136.3215031 -0.03497712 148.57427725 -0.04291266 160.82719517 -0.03110075 C167.3085357 -0.02486839 173.78975494 -0.02402328 180.27108765 -0.0372467 C186.36478113 -0.04881108 192.45814216 -0.04076821 198.55179977 -0.01766968 C200.78667016 -0.0123858 203.02156858 -0.01389082 205.25642776 -0.02272034 C208.31016273 -0.0336717 211.36283633 -0.01991631 214.41650391 0 C215.29822612 -0.00892289 216.17994833 -0.01784577 217.0883894 -0.02703905 C224.10894845 0.06160705 229.14908047 2.07439075 234.6340332 6.43762207 C235.56795898 7.40055176 235.56795898 7.40055176 236.52075195 8.38293457 C237.15625977 9.01973145 237.79176758 9.65652832 238.4465332 10.31262207 C243.09611801 16.10656145 243.6465227 20.97773945 243.60939026 28.12837219 C243.61618693 29.09086701 243.6229836 30.05336182 243.62998623 31.04502314 C243.64896117 34.26690127 243.64652116 37.48839936 243.64404297 40.71032715 C243.6530203 43.02170806 243.66322848 45.33308447 243.67457581 47.64445496 C243.7010826 53.92138732 243.70810957 60.19819699 243.71002316 66.47517991 C243.71287241 71.7162031 243.72390956 76.95719774 243.73453945 82.19820994 C243.75757296 93.85800474 243.76654576 105.51773975 243.76452339 117.17755548 C243.76440353 117.8767295 243.76428366 118.57590353 243.76416016 119.29626465 C243.76403751 119.99629593 243.76391487 120.69632721 243.76378851 121.41757157 C243.76256942 132.75999241 243.79127295 144.10211435 243.83357526 155.44444875 C243.87670437 167.10078607 243.89683478 178.756964 243.89479393 190.41338271 C243.89402921 196.95356387 243.90256969 203.49340671 243.93432808 210.03351784 C243.96338634 216.18555291 243.9635992 222.33692659 243.94177818 228.48898506 C243.93864246 230.7444124 243.94571886 232.99988102 243.96385956 235.25523758 C243.98705906 238.33978201 243.97306646 241.42204969 243.94996643 244.50654602 C243.96539712 245.39450153 243.98082781 246.28245703 243.9967261 247.19732028 C243.87036075 254.85725431 240.65605832 259.90068066 235.43527037 265.36290962 C228.51548931 271.92852696 221.66975495 272.84254051 212.35668945 272.80871582 C207.117504 272.3081981 203.15177962 270.8109413 199.02075195 267.57043457 C198.04041992 266.81439941 198.04041992 266.81439941 197.0402832 266.04309082 C191.43782806 261.34849622 188.97450276 256.63225304 187.20825195 249.50793457 C186.94653893 246.27275944 186.94653893 246.27275944 186.92977905 242.89564514 C186.91303383 240.96278404 186.91303383 240.96278404 186.89595032 238.99087524 C186.89358589 237.58062774 186.89141014 236.1703799 186.8894043 234.76013184 C186.88009707 233.26157597 186.86992722 231.76302525 186.85896301 230.26448059 C186.83173841 226.21131625 186.81653605 222.15818652 186.80353498 218.10495496 C186.78787135 213.86350376 186.76109147 209.62212289 186.73550415 205.38072205 C186.68877351 197.3557235 186.65200178 189.33071164 186.61883128 181.30564684 C186.58056946 172.16655802 186.53116995 163.02753995 186.48084712 153.88851082 C186.37761228 135.09503722 186.28832447 116.30152041 186.20825195 97.50793457 C185.43258537 98.28644905 185.43258537 98.28644905 184.64124876 99.0806911 C153.99219532 129.84163684 123.33009534 160.58952496 92.65100143 191.32051174 C88.96727159 195.01049511 85.2836509 198.70058741 81.60009766 202.39074707 C80.86676722 203.12538906 80.13343678 203.86003105 79.3778842 204.61693493 C67.50442846 216.51214672 55.63983627 228.41616161 43.77849675 240.32345375 C31.6073179 252.54139155 19.42666107 264.74981969 7.23715538 276.94947362 C-0.28401961 284.47750888 -7.79770571 292.0128621 -15.3019783 299.55774716 C-20.44876821 304.73096841 -25.60473643 309.894923 -30.76800429 315.0516977 C-33.74659849 318.02708969 -36.72098914 321.00638654 -39.68454742 323.99676132 C-42.39998638 326.73659101 -45.12680573 329.46454169 -47.86297918 332.18366018 C-48.84866897 333.16724313 -49.83017468 334.1550417 -50.80691247 335.14751491 C-57.21310927 341.65083588 -62.95748548 346.58851428 -72.1628418 348.03918457 C-81.71022518 347.9418864 -88.97022094 346.43005131 -96.16674805 339.88293457 C-102.67335043 332.73094046 -104.21287897 325.46101711 -104.4206543 315.97668457 C-102.57124071 305.77619222 -96.04553524 299.04942066 -88.889328 292.00424194 C-87.87336936 290.98609918 -86.85851173 289.96685678 -85.8446539 288.94662201 C-83.0736799 286.16453203 -80.28746819 283.3981671 -77.49838746 280.63424587 C-74.48662963 277.64416716 -71.48942397 274.6395617 -68.49038696 271.63673401 C-63.29843034 266.4421611 -58.09742926 261.25679021 -52.89009666 256.0776329 C-45.36128039 248.58952622 -37.8463792 241.08758031 -30.33475558 233.58223177 C-18.14602119 221.40442886 -5.94617295 209.23782371 6.26074219 197.07824707 C18.11557118 185.26934334 29.96511484 173.4551771 41.80761719 161.63391113 C42.53811749 160.90472445 43.26861779 160.17553777 44.02125446 159.42425452 C47.68608478 155.76594959 51.35081173 152.10754113 55.01548731 148.44908118 C85.39706687 118.1192989 115.79671909 87.80768075 146.20825195 57.50793457 C145.43225899 57.50554622 144.65626602 57.50315786 143.85675812 57.50069714 C124.96032643 57.4415174 106.06402502 57.36594824 87.16773224 57.27221966 C78.02955785 57.22728659 68.89142221 57.18786618 59.75317383 57.16149902 C51.78669878 57.13849879 43.82034663 57.10507813 35.8539691 57.05923301 C31.63725185 57.03532809 27.42065611 57.01658144 23.20387268 57.01032066 C19.23115072 57.00425742 15.25873955 56.98421307 11.28613281 56.95365906 C9.83176332 56.94489864 8.37735317 56.94115211 6.92295837 56.94292641 C-4.10306207 56.95212686 -13.11674665 56.05237359 -21.3894043 47.94152832 C-27.78532636 40.9170144 -29.34550989 35.1420827 -29.06518555 25.71887207 C-28.37126303 17.57023908 -25.59186304 12.65961808 -20.2175293 6.55090332 C-13.91676326 1.24446107 -8.09875186 -0.08195807 0 0 Z " fill="#000000" transform="translate(268.791748046875,-0.5079345703125)"/>
</svg>
