<?xml version="1.0" encoding="UTF-8"?>
<svg version="1.1" xmlns="http://www.w3.org/2000/svg" width="128" height="93">
<path d="M0 0 C0.83789062 0.42410156 1.67578125 0.84820313 2.5390625 1.28515625 C18.8226959 10.33442001 30.737626 24.47525199 39 41 C39.61405296 47.59409143 38.55167488 50.80230571 34.5 55.9375 C34.04222168 56.54231201 33.58444336 57.14712402 33.11279297 57.77026367 C31.76397269 59.53228055 30.38755362 61.26840769 29 63 C28.33226563 63.85335937 27.66453125 64.70671875 26.9765625 65.5859375 C17.27775485 77.24906062 3.13909206 86.54386538 -12 89 C-25.02086956 89.99793365 -38.95846355 90.65934583 -51 85 C-51.93199219 84.57589844 -52.86398438 84.15179688 -53.82421875 83.71484375 C-66.06105854 77.58789049 -74.82295083 68.64908075 -82.73339844 57.71386719 C-83.59629691 56.54625978 -84.49776469 55.40641985 -85.43066406 54.29394531 C-88.3288375 50.69923265 -89.809678 47.91427154 -89.47119141 43.08007812 C-88.54911556 39.00956711 -86.43564739 35.72065268 -84.1875 32.25 C-83.69121094 31.4657666 -83.19492188 30.6815332 -82.68359375 29.87353516 C-72.36572162 13.98961395 -58.24044532 0.88820809 -39.3581543 -3.60302734 C-26.89570948 -5.70096039 -11.41335328 -5.92829515 0 0 Z M-57 21 C-58.03125 21.721875 -59.0625 22.44375 -60.125 23.1875 C-64.83866133 27.2964934 -68.44372107 32.9060538 -72 38 C-72.62519531 38.845625 -73.25039062 39.69125 -73.89453125 40.5625 C-75.2868384 42.96482608 -75.2868384 42.96482608 -74.375 45.546875 C-66.01297954 60.46547969 -52.37629198 69.7503925 -36.49609375 75.203125 C-23.43384072 78.18044301 -10.19434918 75.77482191 1.52734375 69.5703125 C10.26769452 64.01956841 20.66442961 54.58234541 25 45 C22.24534925 33.39762995 9.8782528 22.14832666 0.125 16.125 C-19.1610808 5.65610728 -39.49581905 8.34357729 -57 21 Z " fill="#030609" transform="translate(89,4)"/>
</svg>
