<?xml version="1.0" encoding="UTF-8"?>
<svg version="1.1" xmlns="http://www.w3.org/2000/svg" width="128" height="93">
<path d="M0 0 C12.1469438 9.18244739 23.75197118 21.48653702 29.36962891 35.84277344 C29.24281868 46.24121168 19.70928001 56.17529011 12.87744141 63.49511719 C-1.12663451 76.60485181 -18.22677004 83.27445783 -37.35693359 83.05761719 C-49.73226633 82.24539368 -61.95022927 78.6867486 -71.63037109 70.84277344 C-73.11537109 70.34777344 -73.11537109 70.34777344 -74.63037109 69.84277344 C-76.39996768 68.22931772 -78.00365359 66.59493433 -79.63037109 64.84277344 C-80.29294922 64.15054688 -80.95552734 63.45832031 -81.63818359 62.74511719 C-85.98325048 58.08968838 -89.98117885 53.26125296 -93.69287109 48.09277344 C-94.44697266 47.04605469 -95.20107422 45.99933594 -95.97802734 44.92089844 C-97.88951549 41.36001744 -98.29708812 39.81819811 -97.63037109 35.84277344 C-96.39466175 32.95609069 -94.83915073 30.32511867 -93.19287109 27.65527344 C-92.7369458 26.9049585 -92.28102051 26.15464355 -91.8112793 25.3815918 C-81.2920451 8.39207061 -68.05650035 -3.71047542 -48.44287109 -8.96972656 C-31.5564789 -12.47936865 -14.26720381 -10.1267664 0 0 Z M-74.63037109 23.84277344 C-78.83546878 28.86152873 -82.22923217 33.12146786 -82.63037109 39.84277344 C-81.2457765 42.95510129 -78.89590441 45.31832202 -76.63037109 47.84277344 C-75.99873047 48.56722656 -75.36708984 49.29167969 -74.71630859 50.03808594 C-64.17627877 61.36763111 -51.70644783 68.61841084 -36.10791016 69.23876953 C-21.34615817 69.49919895 -9.91647368 65.53701155 0.99462891 55.40527344 C1.77837891 54.55964844 2.56212891 53.71402344 3.36962891 52.84277344 C4.74425711 51.50905679 6.11928935 50.17575652 7.49462891 48.84277344 C11.56977145 44.7974224 11.56977145 44.7974224 14.36962891 39.84277344 C13.21708019 30.09413223 4.24453572 20.89454025 -3.01318359 14.86230469 C-27.37295032 -3.04479656 -54.79841355 2.73528665 -74.63037109 23.84277344 Z " fill="#030609" transform="translate(98.63037109375,10.1572265625)"/>
</svg>
