<?xml version="1.0" encoding="UTF-8"?>
<svg version="1.1" xmlns="http://www.w3.org/2000/svg" width="128" height="128">
<path d="M0 0 C14.84844659 2.99105399 27.71965504 10.68966406 36.2265625 23.30078125 C44.62183435 36.88015225 47.19114323 50.89654216 44.34375 66.625 C41.61881752 76.39717164 36.8862637 86.84875637 28.6328125 93.140625 C27 94 27 94 24.25 94.0625 C20.3902439 92.2398374 20.3902439 92.2398374 19 90 C18.8787444 84.78600925 21.36447069 81.95153098 24.44140625 78.0703125 C31.13785253 69.17528361 33.04942163 58.93258233 32 48 C30.25764732 39.16303763 26.92207732 31.82643395 21 25 C20.34 24.67 19.68 24.34 19 24 C19 23.34 19 22.68 19 22 C18.15695313 21.58234375 18.15695313 21.58234375 17.296875 21.15625 C15.75716811 20.38115945 14.22583595 19.58921908 12.703125 18.78125 C5.103368 14.81195016 -1.47507024 12.91021738 -10.01953125 12.44140625 C-12.52911483 11.88207105 -13.4517636 11.02756655 -15 9 C-15.63843192 3.89254463 -15.63843192 3.89254463 -13.8125 1.33984375 C-9.91496216 -1.5413103 -4.58927997 -0.46634716 0 0 Z " fill="#000000" transform="translate(73,10)"/>
</svg>
