<?xml version="1.0" encoding="UTF-8"?>
<svg version="1.1" xmlns="http://www.w3.org/2000/svg" width="128" height="74">
<path d="M0 0 C3.23045378 2.25210848 5.84696723 5.03297973 8.55859375 7.875 C9.34774673 8.67405762 10.13689972 9.47311523 10.94996643 10.29638672 C13.46273007 12.84828406 15.95004956 15.42344614 18.4375 18 C20.13835174 19.73596589 21.84080818 21.4703611 23.54492188 23.203125 C27.7153953 27.45071086 31.86524517 31.7176522 36 36 C34.63501757 39.0400018 33.08118426 41.19013375 30.76293945 43.57519531 C30.10497879 44.25559875 29.44701813 44.9360022 28.76911926 45.63702393 C28.05769272 46.36008728 27.34626617 47.08315063 26.61328125 47.828125 C25.87804733 48.57713074 25.14281342 49.32613647 24.38529968 50.09783936 C22.82889298 51.67749815 21.26947338 53.25419325 19.70727539 54.828125 C17.32280913 57.23957421 14.9634198 59.67391648 12.60351562 62.109375 C11.08743512 63.6421078 9.56990384 65.17340722 8.05078125 66.703125 C7.34947586 67.43428528 6.64817047 68.16544556 5.9256134 68.91876221 C0.93602288 73.86445976 0.93602288 73.86445976 -3.85083008 74.55761719 C-7 74 -7 74 -9.4375 72.375 C-11 70 -11 70 -11.6875 67.25 C-10.21979263 60.31174697 -3.59568805 55.57987967 1.2578125 50.734375 C2.14871582 49.84459961 3.03961914 48.95482422 3.95751953 48.03808594 C4.63153809 47.36551758 5.30555664 46.69294922 6 46 C4.87104813 45.99413376 3.74209625 45.98826752 2.57893372 45.98222351 C-8.05942171 45.92501514 -18.69757234 45.85226327 -29.33571911 45.76428509 C-34.80493383 45.71955411 -40.27407358 45.68030388 -45.7434082 45.65356445 C-51.0214446 45.62755887 -56.29919294 45.58717565 -61.57705116 45.53681374 C-63.59083791 45.52012649 -65.60467451 45.5086238 -67.61852074 45.50238609 C-70.43894029 45.49276532 -73.25861979 45.46473003 -76.07885742 45.43237305 C-76.91179825 45.43380814 -77.74473907 45.43524323 -78.60292053 45.4367218 C-84.40521669 45.34255447 -87.79479056 44.20520944 -92 40 C-92.375 37.125 -92.375 37.125 -92 34 C-89.76793569 31.15219381 -88.45007001 30.15002334 -85 29 C-82.09488452 28.87953201 -79.21199652 28.81458639 -76.3059082 28.79467773 C-75.4178952 28.78477814 -74.5298822 28.77487854 -73.61495972 28.76467896 C-70.67692744 28.73306711 -67.73887899 28.70830771 -64.80078125 28.68359375 C-62.76482216 28.66302396 -60.72886733 28.64202748 -58.69291687 28.62062073 C-53.33193415 28.56540271 -47.97091291 28.5159922 -42.60986328 28.46777344 C-37.14026456 28.41755648 -31.67072185 28.36187142 -26.20117188 28.30664062 C-15.46749575 28.19906233 -4.73377102 28.09761659 6 28 C5.52054932 27.52578613 5.04109863 27.05157227 4.54711914 26.56298828 C2.38298162 24.41959665 0.22270353 22.2723561 -1.9375 20.125 C-2.69224609 19.37863281 -3.44699219 18.63226562 -4.22460938 17.86328125 C-4.94326172 17.14785156 -5.66191406 16.43242187 -6.40234375 15.6953125 C-7.06741943 15.03547363 -7.73249512 14.37563477 -8.41772461 13.69580078 C-10.55500766 11.40517154 -10.96994956 10.27646403 -11.3125 7.125 C-11 4 -11 4 -9.4375 1.625 C-5.92463129 -0.71691247 -4.18737237 -0.6403628 0 0 Z " fill="#000000" transform="translate(92,0)"/>
</svg>
