<?xml version="1.0" encoding="UTF-8"?>
<svg version="1.1" xmlns="http://www.w3.org/2000/svg" width="88" height="64">
<path d="M0 0 C8.07226583 5.61316498 13.70989411 11.73029938 18.94921875 20.05078125 C19.49449219 20.91058594 20.03976563 21.77039063 20.6015625 22.65625 C22.6172849 26.23780894 22.67481994 27.96102908 21.94921875 32.05078125 C19.63238275 36.0174853 16.88530412 39.52539278 13.94921875 43.05078125 C13.39878906 43.7159375 12.84835938 44.38109375 12.28125 45.06640625 C5.12312757 52.91382936 -5.36684107 58.86391446 -16.02734375 59.421875 C-31.30227289 59.75502356 -42.53228674 57.79708618 -54.05078125 47.05078125 C-56.87429387 44.16687264 -59.50558912 41.18199956 -62.05078125 38.05078125 C-62.50839844 37.50292969 -62.96601562 36.95507812 -63.4375 36.390625 C-66.3435723 32.56684566 -66.52032865 29.74625522 -66.05078125 25.05078125 C-64.83357663 22.32513023 -63.22101698 19.97387962 -61.48828125 17.55078125 C-61.0308252 16.89223145 -60.57336914 16.23368164 -60.10205078 15.55517578 C-46.35258763 -3.86974145 -21.73585846 -12.8357318 0 0 Z M-48.5546875 16.53515625 C-51.71373572 19.71892316 -54.47214232 22.80349081 -56.05078125 27.05078125 C-55.47201863 32.83840743 -49.29052929 38.20752345 -44.9765625 41.7578125 C-36.29305443 47.91577603 -26.76888195 51.56250208 -16.05078125 50.05078125 C-4.46376258 47.01866421 3.71652524 40.66859952 11.07421875 31.36328125 C12.21879141 29.05780322 12.21879141 29.05780322 11.20703125 26.6875 C7.98092961 19.9247093 2.87521744 14.53141441 -3.05078125 10.05078125 C-3.71078125 10.38078125 -4.37078125 10.71078125 -5.05078125 11.05078125 C-4.39078125 12.12328125 -3.73078125 13.19578125 -3.05078125 14.30078125 C-0.05002926 20.34515312 0.11715604 26.91808006 -1.7109375 33.38671875 C-4.41333823 39.49344249 -8.99605153 43.62090776 -14.98828125 46.42578125 C-23.3585011 48.13398938 -29.60927476 46.77625114 -36.80078125 42.36328125 C-41.7276248 37.29958093 -43.68537233 31.5743035 -44.16015625 24.58203125 C-43.92448666 19.1279636 -42.04867143 14.54761652 -39.05078125 10.05078125 C-42.96167468 10.05078125 -45.81519273 14.00639185 -48.5546875 16.53515625 Z M-23.05078125 15.05078125 C-22.78265625 16.26765625 -22.51453125 17.48453125 -22.23828125 18.73828125 C-21.75770379 22.4512359 -21.86185397 22.8041262 -24.30078125 25.98828125 C-27.05078125 28.05078125 -27.05078125 28.05078125 -30.05078125 29.05078125 C-28.74182405 32.17275603 -28.74182405 32.17275603 -26.05078125 34.05078125 C-21.43072638 34.46145279 -18.69627415 33.98742831 -15.05078125 31.05078125 C-13.30750712 28.11891112 -13.03645705 26.40172409 -13.17578125 22.98828125 C-14.19937391 19.55193447 -15.19435268 18.19310268 -18.05078125 16.05078125 C-20.69262666 15.25396807 -20.69262666 15.25396807 -23.05078125 15.05078125 Z " fill="#040609" transform="translate(66.05078125,4.94921875)"/>
</svg>
