<?xml version="1.0" encoding="UTF-8"?>
<svg version="1.1" xmlns="http://www.w3.org/2000/svg" width="512" height="373">
<path d="M0 0 C1.08821045 0.00087616 2.1764209 0.00175232 3.29760742 0.00265503 C19.24479531 0.04504904 34.51225033 0.53118047 50.0625 4.375 C51.05362793 4.60574219 52.04475586 4.83648438 53.06591797 5.07421875 C95.21231199 15.05469608 133.17955373 37.4131488 164.55615234 66.97021484 C166.0904912 68.40110395 167.64500923 69.8064486 169.20703125 71.20703125 C205.01190519 103.43957381 230.4971883 143.70643351 252.0625 186.375 C252.43971191 187.09671387 252.81692383 187.81842773 253.20556641 188.56201172 C255.44339093 193.29650885 254.93425394 198.3483954 254.0625 203.375 C239.38144194 243.58528719 196.84488129 289.63821966 163.0625 315.375 C161.83982417 316.32679777 160.61716938 317.27862256 159.39453125 318.23046875 C150.31093554 325.2352539 140.94723786 331.55894479 131.0625 337.375 C130.00724121 337.99737549 130.00724121 337.99737549 128.93066406 338.63232422 C107.00004562 351.4506475 84.03490659 360.51193836 59.5625 367.1875 C58.5007959 367.4777002 57.4390918 367.76790039 56.34521484 368.06689453 C37.73647299 372.9929944 19.25113523 373.57842585 0.11376953 373.61523438 C-2.90490764 373.62489569 -5.9228889 373.65601098 -8.94140625 373.6875 C-59.01140749 373.95901603 -111.03963352 358.03570353 -150.9375 327.375 C-152.2130144 326.43631122 -153.49051403 325.5003166 -154.76953125 324.56640625 C-161.95049588 319.29929049 -168.825643 313.93765471 -175.3125 307.82421875 C-177.42605362 305.85219774 -179.5720409 303.9660383 -181.765625 302.0859375 C-186.00167081 298.3932926 -189.86188065 294.42432884 -193.6875 290.3125 C-194.38069336 289.57008057 -195.07388672 288.82766113 -195.78808594 288.06274414 C-206.1047109 276.95061179 -215.58788764 265.44443359 -224.57080078 253.23095703 C-226.55335844 250.53867348 -228.55696605 247.86272015 -230.5625 245.1875 C-231.2740625 244.23746094 -231.985625 243.28742188 -232.71875 242.30859375 C-234.71717943 239.66630414 -236.73644863 237.04231675 -238.76611328 234.42407227 C-243.33413064 228.52522197 -247.83179291 222.6084823 -251.9375 216.375 C-252.51886719 215.55 -253.10023438 214.725 -253.69921875 213.875 C-258.61869519 206.16896697 -259.74048469 198.24475901 -257.9375 189.375 C-256.15007676 183.61117615 -253.04882644 178.50682927 -249.9375 173.375 C-249.45522949 172.56901367 -248.97295898 171.76302734 -248.47607422 170.93261719 C-245.25248571 165.57119458 -241.94264816 160.26816646 -238.59130859 154.98583984 C-237.02551428 152.51394667 -235.47324375 150.03418013 -233.92578125 147.55078125 C-220.78890444 126.51690725 -207.2214749 106.11507971 -190.9375 87.375 C-190.22078125 86.54484375 -189.5040625 85.7146875 -188.765625 84.859375 C-178.71690339 73.45067603 -167.97222363 62.67930223 -155.9375 53.375 C-155.00421875 52.61316406 -154.0709375 51.85132813 -153.109375 51.06640625 C-138.71351948 39.53126561 -122.67331832 30.08763224 -105.9375 22.375 C-104.32681641 21.61509766 -104.32681641 21.61509766 -102.68359375 20.83984375 C-70.13656472 6.15255628 -35.4997875 -0.06970911 0 0 Z M-159.1875 125.875 C-173.53472954 142.09877115 -185.64962575 159.93474897 -196.9375 178.375 C-197.6284375 179.48875 -198.319375 180.6025 -199.03125 181.75 C-202.79037801 188.10912782 -202.79037801 188.10912782 -203.51171875 195.296875 C-201.06400297 204.15527496 -194.76815282 211.66015521 -189.19677734 218.76416016 C-187.88552793 220.44148153 -186.59244279 222.13177821 -185.30078125 223.82421875 C-179.23863438 231.71984329 -172.85134226 239.20398194 -165.9375 246.375 C-164.94073242 247.41261475 -164.94073242 247.41261475 -163.92382812 248.47119141 C-154.46501153 258.26541207 -144.89106515 267.28990807 -133.9375 275.375 C-132.99261719 276.11492187 -132.04773438 276.85484375 -131.07421875 277.6171875 C-86.45790762 312.29819283 -32.10158372 329.50894189 24.3269043 323.49536133 C49.09603318 320.38844085 73.18717469 313.30107269 95.15917969 301.40478516 C97.10996877 300.34931718 99.07396519 299.321507 101.0390625 298.29296875 C111.12547327 292.91608036 120.12901421 286.48177728 129.0625 279.375 C130.60744141 278.1684375 130.60744141 278.1684375 132.18359375 276.9375 C139.65941739 270.871292 146.48819675 264.15545734 153.3125 257.375 C154.23562988 256.46121582 155.15875977 255.54743164 156.10986328 254.60595703 C162.18582269 248.50162059 167.72654371 242.13193777 173.0625 235.375 C173.67367676 234.61251953 174.28485352 233.85003906 174.91455078 233.06445312 C181.13727435 225.28036622 187.21496565 217.41657554 192.75 209.125 C193.34639282 208.23216309 193.34639282 208.23216309 193.95483398 207.32128906 C198.54785011 200.68806793 198.54785011 200.68806793 200.03125 193.00390625 C198.84920549 188.57600565 196.968007 185.18149103 194.5625 181.3125 C193.88429199 180.19560791 193.88429199 180.19560791 193.19238281 179.05615234 C191.82832821 176.82106917 190.4469274 174.59750404 189.0625 172.375 C188.33849546 171.19143452 187.6145335 170.00784298 186.890625 168.82421875 C178.04652254 154.67697966 168.24479767 141.15049966 156.6796875 129.10546875 C154.45979134 126.78948753 152.33694905 124.43477389 150.25 122 C144.66524779 115.58490094 138.6536521 110.09679382 132.01953125 104.76953125 C128.98743744 102.31421619 126.02820601 99.78489009 123.0625 97.25 C117.66712646 92.75038345 112.07043902 88.99633704 106.0625 85.375 C105.05574219 84.73949219 104.04898437 84.10398437 103.01171875 83.44921875 C99.72066914 81.37975532 96.39810643 79.3717471 93.0625 77.375 C92.03769531 76.73691406 91.01289063 76.09882812 89.95703125 75.44140625 C6.8584437 27.02405806 -97.40841634 59.41863556 -159.1875 125.875 Z " fill="#030609" transform="translate(257.9375,-0.37499999999999994)"/>
</svg>
