<?xml version="1.0" encoding="UTF-8"?>
<svg version="1.1" xmlns="http://www.w3.org/2000/svg" width="512" height="494">
<path d="M0 0 C3.44037759 -0.00433752 6.87943124 -0.04065506 10.31958008 -0.07861328 C30.13624418 -0.17993327 49.55996561 2.13396157 68.6730957 7.49560547 C69.72867676 7.78636963 70.78425781 8.07713379 71.87182617 8.37670898 C111.86053205 19.82788547 146.46027394 41.16142634 176.6730957 69.37060547 C181.04767007 65.78528997 185.12412116 61.99406936 189.09887695 57.97216797 C189.57614227 57.48939392 190.05340759 57.00661987 190.5451355 56.50921631 C192.53647811 54.49013842 194.52398102 52.46736634 196.50732422 50.44042969 C197.97103336 48.94669454 199.44076065 47.45909866 200.91137695 45.97216797 C202.2113562 44.64693115 202.2113562 44.64693115 203.53759766 43.29492188 C205.6730957 41.37060547 205.6730957 41.37060547 207.6730957 41.37060547 C207.8999707 40.81373047 208.1268457 40.25685547 208.3605957 39.68310547 C211.07463701 34.90122316 215.44311289 31.75459172 219.6730957 28.37060547 C220.8177832 27.16404297 220.8177832 27.16404297 221.9855957 25.93310547 C228.93314341 19.30869952 235.21626857 16.9877116 244.7199707 17.08935547 C252.06724276 17.78909566 257.94863078 20.67345659 262.6730957 26.37060547 C263.3949707 27.19560547 264.1168457 28.02060547 264.8605957 28.87060547 C268.19727515 33.47292194 268.92472609 37.26026844 268.95397949 42.90287781 C268.96289286 43.86650442 268.96289286 43.86650442 268.97198629 44.84959823 C268.98927787 46.994268 268.99236964 49.13871342 268.99536133 51.28344727 C269.00462367 52.82459485 269.0146738 54.36573788 269.02545166 55.90687561 C269.05164879 60.08893409 269.06457987 64.27092842 269.07347298 68.4530561 C269.07934348 71.06883395 269.08755485 73.68459445 269.09648132 76.30036354 C269.1238196 84.49307982 269.14315783 92.68575622 269.15088511 100.87851495 C269.15984011 110.31983158 269.19491079 119.76056818 269.2528863 129.2017085 C269.29619729 136.50977269 269.3162978 143.81767417 269.31896734 151.12586528 C269.32105821 155.48586244 269.33275938 159.84531394 269.36860657 164.2051754 C269.40170301 168.31026125 269.40581592 172.4143953 269.38832855 176.51956749 C269.38679481 178.01991333 269.39538097 179.52031176 269.41524506 181.02052689 C269.52841572 190.10592311 268.76381411 197.20179801 262.6730957 204.37060547 C256.71928193 209.81416123 251.40618893 212.61113988 243.2167511 212.64476013 C241.91172134 212.65473526 240.60669159 212.66471039 239.26211548 212.67498779 C237.82269299 212.67588352 236.38327035 212.67654713 234.94384766 212.67700195 C233.42240493 212.68462665 231.90096605 212.69305468 230.37953186 212.70222473 C226.25118152 212.72415 222.12290525 212.73296633 217.99450326 212.73805118 C215.41222717 212.74169802 212.82997037 212.74793988 210.24770164 212.75505257 C201.2300672 212.7795432 192.21249022 212.79259748 183.19482422 212.79614258 C174.80428141 212.79977438 166.41410517 212.8296451 158.02367431 212.87154716 C150.80902687 212.90630725 143.59450054 212.92169203 136.37976998 212.92238861 C132.0757379 212.92317968 127.7720791 212.93183911 123.46813393 212.96038628 C119.41565508 212.98666433 115.36385634 212.98871851 111.3113308 212.97273064 C109.83034653 212.97092366 108.34932228 212.97753866 106.86842346 212.99354935 C96.98842201 213.09378773 89.10741993 212.24478296 81.54004383 205.4574194 C75.90588318 199.72220064 73.63357952 193.38034489 73.2355957 185.43310547 C74.05407381 166.46195228 94.89270735 152.02335848 107.3605957 139.62060547 C109.04507518 137.94115332 110.72932171 136.2614675 112.41333008 134.58154297 C116.49724002 130.50853563 120.58400446 126.43841067 124.6730957 122.37060547 C122.8556431 118.38831575 120.31335293 116.00399886 116.9855957 113.24560547 C116.40890137 112.76551025 115.83220703 112.28541504 115.23803711 111.79077148 C93.57681434 94.08671975 68.06475315 81.87080911 40.6730957 76.37060547 C39.98441406 76.2263916 39.29573242 76.08217773 38.58618164 75.93359375 C3.82108567 68.66839151 -32.67132647 72.25746766 -65.3269043 86.37060547 C-65.99560547 86.65097656 -66.66430664 86.93134766 -67.35327148 87.22021484 C-108.8049322 104.76117916 -141.34614482 139.68438309 -158.50830078 180.94775391 C-166.06802964 199.91864633 -170.56990594 219.95530611 -171.3269043 240.37060547 C-171.3681543 241.45212891 -171.4094043 242.53365234 -171.4519043 243.64794922 C-172.35387592 291.95980449 -153.16232671 337.23564112 -119.8972168 371.79638672 C-110.40275731 381.43190382 -99.8115741 389.26740393 -88.3269043 396.37060547 C-87.38572754 396.95455078 -87.38572754 396.95455078 -86.42553711 397.55029297 C-69.9251114 407.64188222 -52.16014806 414.16671972 -33.3269043 418.37060547 C-32.29847412 418.6081958 -32.29847412 418.6081958 -31.24926758 418.85058594 C3.00191837 426.57185547 40.58461049 422.33245788 72.6730957 408.37060547 C73.36306641 408.07428223 74.05303711 407.77795898 74.76391602 407.47265625 C92.71938848 399.66821587 108.64422814 389.00675914 122.9230957 375.62060547 C127.53164301 371.3054246 132.14868454 367.46427572 137.6730957 364.37060547 C138.25704102 364.03287109 138.84098633 363.69513672 139.44262695 363.34716797 C146.78049446 359.86208057 156.88502847 360.25841662 164.6496582 362.06201172 C174.64681441 365.76065 182.10083725 372.37031017 186.9309082 381.83544922 C190.87678744 391.23105677 191.28192204 401.02828528 187.7355957 410.62060547 C184.78983917 416.88763992 180.54845297 421.52910485 175.6730957 426.37060547 C175.0955957 426.98419922 174.5180957 427.59779297 173.9230957 428.22998047 C161.34309329 441.41479069 145.33129894 452.20303917 129.6730957 461.37060547 C128.49850456 462.08396279 127.32402893 462.79751034 126.1496582 463.51123047 C106.07934119 475.47759421 83.45777849 483.78708517 60.7355957 489.05810547 C59.50462158 489.34391479 59.50462158 489.34391479 58.2487793 489.63549805 C55.39816734 490.2630929 52.54030727 490.82354323 49.6730957 491.37060547 C49.0409314 491.49735657 48.40876709 491.62410767 47.75744629 491.75469971 C33.29027359 494.60269875 19.01005672 494.92865919 4.2980957 494.87060547 C3.10577332 494.86884308 1.91345093 494.86708069 0.68499756 494.86526489 C-17.48147352 494.80539752 -34.67622935 493.98793819 -52.3269043 489.37060547 C-53.92767822 488.96116699 -53.92767822 488.96116699 -55.56079102 488.54345703 C-68.09067516 485.26892063 -80.33059818 481.24370302 -92.3269043 476.37060547 C-92.99028809 476.10328613 -93.65367187 475.8359668 -94.3371582 475.56054688 C-106.1183334 470.78774725 -106.1183334 470.78774725 -107.3269043 468.37060547 C-108.1415918 468.11279297 -108.9562793 467.85498047 -109.7956543 467.58935547 C-114.53678735 465.95303521 -118.55503813 463.47134775 -122.8269043 460.87060547 C-124.15540405 460.06538452 -124.15540405 460.06538452 -125.51074219 459.24389648 C-174.81072588 429.04938704 -212.86177788 382.27099882 -231.3269043 327.37060547 C-231.60083008 326.56913086 -231.87475586 325.76765625 -232.15698242 324.94189453 C-238.91853208 304.86090669 -243.3722696 283.4845601 -243.6003418 262.26904297 C-243.61291519 261.20692596 -243.62548859 260.14480896 -243.63844299 259.05050659 C-243.94548104 226.86676422 -241.54741604 198.10956882 -231.3269043 167.37060547 C-231.09422852 166.65372559 -230.86155273 165.9368457 -230.62182617 165.19824219 C-216.56121739 122.48127326 -187.86031387 81.97466283 -152.3269043 54.37060547 C-151.30983398 53.55978516 -150.29276367 52.74896484 -149.24487305 51.91357422 C-136.78001902 42.04738657 -123.35997136 33.81361192 -109.3269043 26.37060547 C-108.64128418 26.00467285 -107.95566406 25.63874023 -107.24926758 25.26171875 C-85.22131264 13.69359495 -60.79807596 6.45795824 -36.3269043 2.37060547 C-35.37340088 2.18804199 -34.41989746 2.00547852 -33.4375 1.81738281 C-22.34975263 -0.09163065 -11.22179192 -0.00157576 0 0 Z " fill="#000000" transform="translate(243.326904296875,-0.37060546875)"/>
</svg>
